<?xml version="1.0" standalone="no"?>
<!DOCTYPE svg PUBLIC "-//W3C//DTD SVG 20010904//EN"
 "http://www.w3.org/TR/2001/REC-SVG-20010904/DTD/svg10.dtd">
<svg version="1.0" xmlns="http://www.w3.org/2000/svg"
 width="680.000000pt" height="680.000000pt" viewBox="0 0 680.000000 680.000000"
 preserveAspectRatio="xMidYMid meet">
<metadata>
Created by potrace 1.14, written by Peter Selinger 2001-2017
</metadata>
<g transform="translate(0.000000,680.000000) scale(0.100000,-0.100000)"
fill="#000000" stroke="none">
<path d="M3364 5925 c-22 -20 -114 -110 -207 -198 -92 -89 -205 -198 -251
-242 -215 -208 -534 -515 -576 -555 -88 -83 -421 -404 -528 -508 -59 -57 -185
-179 -281 -270 -96 -92 -221 -213 -279 -269 -58 -57 -107 -103 -107 -103 -1 0
-40 -37 -87 -82 -160 -156 -483 -467 -536 -516 -48 -45 -51 -50 -30 -53 13 -2
180 -4 371 -3 l348 0 -2 -35 c-1 -30 -1 -278 0 -346 0 -11 0 -38 0 -60 0 -22
0 -47 0 -55 0 -8 0 -55 0 -105 -1 -49 -1 -97 0 -105 0 -8 0 -80 0 -160 0 -80
0 -152 0 -160 0 -8 0 -33 0 -55 0 -22 0 -47 0 -55 0 -8 0 -55 0 -105 -1 -49 0
-97 0 -105 0 -8 0 -46 0 -85 -1 -38 -1 -77 0 -85 0 -8 0 -64 0 -125 0 -60 0
-117 0 -125 0 -8 0 -33 0 -55 0 -39 0 -51 2 -77 0 -7 0 -42 0 -78 0 -36 -1
-107 -1 -157 0 -51 0 -96 -1 -100 -1 -5 -1 -18 0 -30 l1 -23 2200 0 2201 0 -1
53 c0 28 0 61 0 72 2 77 0 289 -1 320 -1 6 0 78 0 160 0 83 1 185 1 228 -1 43
2 82 5 87 3 5 1 11 -3 14 -5 3 -6 25 -3 48 4 24 4 60 0 81 -3 21 -3 40 1 42 3
2 3 29 0 59 -3 31 -3 56 0 56 4 0 4 19 0 42 -3 24 -3 57 1 75 3 17 3 37 -1 43
-4 6 -4 29 0 50 4 21 4 44 0 50 -4 6 -4 29 0 51 4 22 4 41 0 44 -4 2 -4 24 -1
47 4 24 4 60 0 81 -3 21 -3 40 1 42 3 2 3 29 0 59 -3 31 -3 56 0 56 4 0 4 19
0 43 -3 23 -3 56 1 74 3 17 3 36 -1 43 -4 6 -4 28 -1 48 4 20 4 58 1 85 -4 26
-4 47 -1 47 3 0 6 19 6 42 l0 43 350 2 c193 0 359 2 369 2 16 1 9 11 -30 47
-27 25 -141 135 -254 244 -113 109 -230 221 -260 250 -30 29 -149 143 -264
254 -114 110 -231 223 -260 250 -28 27 -143 138 -256 247 -113 108 -243 234
-290 278 -46 45 -160 154 -253 244 -92 89 -216 208 -275 265 -58 56 -106 102
-107 102 -1 0 -44 42 -96 93 -52 50 -187 180 -298 287 -112 107 -220 212 -241
233 l-38 38 -38 -36z m-732 -3485 c123 1 228 1 233 1 6 0 24 0 40 0 17 -1 37
0 45 0 8 0 132 1 275 0 283 0 276 0 320 0 17 -1 37 0 45 0 8 1 103 1 210 0
107 0 202 0 210 0 8 0 78 0 155 0 77 -1 176 -1 220 -1 44 0 84 -5 88 -9 5 -5
8 -28 5 -50 -2 -23 0 -41 5 -41 4 0 6 -4 2 -9 -4 -8 -6 -52 -4 -121 0 -8 0
-24 -1 -35 -1 -11 -1 -36 -1 -55 1 -19 1 -43 1 -52 -1 -10 0 -35 1 -55 1 -36
-23 -69 -43 -57 -4 3 -101 5 -216 5 -313 -1 -987 -1 -1457 0 -159 0 -325 0
-368 -1 l-77 -1 0 73 c0 40 -1 99 -2 131 -2 31 -1 57 2 57 3 0 3 33 0 72 -3
40 -4 90 -2 111 3 36 5 38 33 33 16 -2 31 0 35 5 3 5 9 7 15 4 5 -3 109 -5
231 -5z"/>
</g>
</svg>
