<svg width="422" height="120" viewBox="0 0 422 120" fill="none" xmlns="http://www.w3.org/2000/svg">
<path d="M130.36 31.84V42.8H115.48V88H101.8V42.8H86.92V31.84H130.36ZM179.306 64.96C179.306 66.24 179.226 67.5733 179.066 68.96H148.106C148.319 71.7333 149.199 73.8667 150.746 75.36C152.346 76.8 154.292 77.52 156.586 77.52C159.999 77.52 162.372 76.08 163.706 73.2H178.266C177.519 76.1333 176.159 78.7733 174.186 81.12C172.266 83.4667 169.839 85.3067 166.906 86.64C163.972 87.9733 160.692 88.64 157.066 88.64C152.692 88.64 148.799 87.7067 145.386 85.84C141.972 83.9733 139.306 81.3067 137.386 77.84C135.466 74.3733 134.506 70.32 134.506 65.68C134.506 61.04 135.439 56.9867 137.306 53.52C139.226 50.0533 141.892 47.3867 145.306 45.52C148.719 43.6533 152.639 42.72 157.066 42.72C161.386 42.72 165.226 43.6267 168.586 45.44C171.946 47.2533 174.559 49.84 176.426 53.2C178.346 56.56 179.306 60.48 179.306 64.96ZM165.306 61.36C165.306 59.0133 164.506 57.1467 162.906 55.76C161.306 54.3733 159.306 53.68 156.906 53.68C154.612 53.68 152.666 54.3467 151.066 55.68C149.519 57.0133 148.559 58.9067 148.186 61.36H165.306ZM213.723 42.88C218.949 42.88 223.109 44.5867 226.203 48C229.349 51.36 230.923 56 230.923 61.92V88H217.323V63.76C217.323 60.7733 216.549 58.4533 215.003 56.8C213.456 55.1467 211.376 54.32 208.763 54.32C206.149 54.32 204.069 55.1467 202.523 56.8C200.976 58.4533 200.203 60.7733 200.203 63.76V88H186.523V43.36H200.203V49.28C201.589 47.3067 203.456 45.76 205.803 44.64C208.149 43.4667 210.789 42.88 213.723 42.88ZM254.109 28.8V88H240.429V28.8H254.109ZM261.303 65.6C261.303 61.0133 262.156 56.9867 263.863 53.52C265.623 50.0533 267.996 47.3867 270.983 45.52C273.969 43.6533 277.303 42.72 280.983 42.72C284.129 42.72 286.876 43.36 289.223 44.64C291.623 45.92 293.463 47.6 294.743 49.68V43.36H308.423V88H294.743V81.68C293.409 83.76 291.543 85.44 289.143 86.72C286.796 88 284.049 88.64 280.903 88.64C277.276 88.64 273.969 87.7067 270.983 85.84C267.996 83.92 265.623 81.2267 263.863 77.76C262.156 74.24 261.303 70.1867 261.303 65.6ZM294.743 65.68C294.743 62.2667 293.783 59.5733 291.863 57.6C289.996 55.6267 287.703 54.64 284.983 54.64C282.263 54.64 279.943 55.6267 278.023 57.6C276.156 59.52 275.223 62.1867 275.223 65.6C275.223 69.0133 276.156 71.7333 278.023 73.76C279.943 75.7333 282.263 76.72 284.983 76.72C287.703 76.72 289.996 75.7333 291.863 73.76C293.783 71.7867 294.743 69.0933 294.743 65.68ZM345.519 42.88C350.746 42.88 354.906 44.5867 357.999 48C361.146 51.36 362.719 56 362.719 61.92V88H349.119V63.76C349.119 60.7733 348.346 58.4533 346.799 56.8C345.253 55.1467 343.173 54.32 340.559 54.32C337.946 54.32 335.866 55.1467 334.319 56.8C332.773 58.4533 331.999 60.7733 331.999 63.76V88H318.319V43.36H331.999V49.28C333.386 47.3067 335.253 45.76 337.599 44.64C339.946 43.4667 342.586 42.88 345.519 42.88ZM369.506 65.6C369.506 61.0133 370.359 56.9867 372.066 53.52C373.826 50.0533 376.199 47.3867 379.186 45.52C382.172 43.6533 385.506 42.72 389.186 42.72C392.119 42.72 394.786 43.3333 397.186 44.56C399.639 45.7867 401.559 47.44 402.946 49.52V28.8H416.626V88H402.946V81.6C401.666 83.7333 399.826 85.44 397.426 86.72C395.079 88 392.332 88.64 389.186 88.64C385.506 88.64 382.172 87.7067 379.186 85.84C376.199 83.92 373.826 81.2267 372.066 77.76C370.359 74.24 369.506 70.1867 369.506 65.6ZM402.946 65.68C402.946 62.2667 401.986 59.5733 400.066 57.6C398.199 55.6267 395.906 54.64 393.186 54.64C390.466 54.64 388.146 55.6267 386.226 57.6C384.359 59.52 383.426 62.1867 383.426 65.6C383.426 69.0133 384.359 71.7333 386.226 73.76C388.146 75.7333 390.466 76.72 393.186 76.72C395.906 76.72 398.199 75.7333 400.066 73.76C401.986 71.7867 402.946 69.0933 402.946 65.68Z" fill="#D97307"/>
<rect x="22" y="61" width="41" height="20" stroke="#D97307" stroke-width="14"/>
<path d="M42.5 24L79.3061 59.4167H5.69392L42.5 24Z" fill="#D97307"/>
</svg>
